<?xml version="1.0" encoding="UTF-8" standalone="no"?> <svg id="Layer_1" data-name="Layer 1" xmlns="http://www.w3.org/2000/svg" viewBox="0 0 128 128"><defs><style>.cls-1{fill:#2b77c0;}.cls-2{fill:#3b4551;}</style></defs><title>a</title><path class="cls-1" d="M46.95142,87.79953h17.324l5.88844,8.1309a.77388.77388,0,0,0,1.24588,0l3.06872-4.23592,2.636-3.659.17047-.236h3.76371a6.568,6.568,0,0,0,6.5572-6.55706V57.62358a6.56788,6.56788,0,0,0-6.5572-6.5572H46.95142a6.57624,6.57624,0,0,0-6.5572,6.5572v23.6189A6.5764,6.5764,0,0,0,46.95142,87.79953Z"/><path class="cls-2" d="M119.328,16.32432H8.648A6.81488,6.81488,0,0,0,1.84057,23.1317V104.8683A6.815,6.815,0,0,0,8.648,111.67568H119.328a6.83556,6.83556,0,0,0,6.8314-6.80738V23.1317A6.83547,6.83547,0,0,0,119.328,16.32432ZM45.89531,24.16969A4.82792,4.82792,0,1,1,41.0674,28.9976,4.842,4.842,0,0,1,45.89531,24.16969Zm-14.48375,0a4.82792,4.82792,0,1,1-4.82792,4.82792A4.842,4.842,0,0,1,31.41156,24.16969Zm-14.48375,0A4.82792,4.82792,0,1,1,12.0999,28.9976,4.842,4.842,0,0,1,16.92781,24.16969ZM120.12453,104.8683a.79914.79914,0,0,1-.7965.77248H8.648a.79435.79435,0,0,1-.77248-.77248V41.67089H120.12453Z"/></svg>